<?xml version="1.0" standalone="no"?>
<!DOCTYPE svg PUBLIC "-//W3C//DTD SVG 1.1//EN" "http://www.w3.org/Graphics/SVG/1.1/DTD/svg11.dtd">
<svg xmlns="http://www.w3.org/2000/svg" xmlns:xlink="http://www.w3.org/1999/xlink" viewBox="0 0 563.86 350.6" width="563.8599853515625" height="350.6000061035156"><defs><style>.cls-1{fill:#8a6df1;}.cls-2{fill:url(#linear-gradient);}.cls-3{fill:url(#linear-gradient-2);}.cls-4{fill:#4de4cf;}</style><linearGradient id="linear-gradient" x1="131.66" y1="288.56" x2="117.37" y2="254.95" gradientUnits="userSpaceOnUse"><stop offset="0" stop-color="#6348be"/><stop offset="0.02" stop-color="#6449c0"/><stop offset="0.4" stop-color="#795ddb"/><stop offset="0.74" stop-color="#8669eb"/><stop offset="0.99" stop-color="#8a6df1"/></linearGradient><linearGradient id="linear-gradient-2" x1="57.09" y1="94.22" x2="38.31" y2="50.07" xlink:href="#linear-gradient"/></defs><g id="Logo"><path class="cls-1" d="M16.53,341.14a.77.77,0,0,1-.22-.56V320.44H9.74a.75.75,0,0,1-.79-.78v-1.33a.81.81,0,0,1,.22-.59.78.78,0,0,1,.57-.23H26.09a.75.75,0,0,1,.58.23.8.8,0,0,1,.21.59v1.33a.77.77,0,0,1-.79.78H19.55v20.14a.71.71,0,0,1-.24.56.82.82,0,0,1-.58.23H17.1A.78.78,0,0,1,16.53,341.14Z"/><path class="cls-1" d="M30.33,341.14a.77.77,0,0,1-.22-.56V318a.77.77,0,0,1,.22-.58.8.8,0,0,1,.57-.21h1.56a.73.73,0,0,1,.79.79v7.94A6.7,6.7,0,0,1,35.58,324a7.53,7.53,0,0,1,3.32-.66A6.4,6.4,0,0,1,44,325.4a8.16,8.16,0,0,1,1.82,5.54v9.64a.73.73,0,0,1-.22.56.77.77,0,0,1-.56.23h-1.6a.78.78,0,0,1-.57-.23.73.73,0,0,1-.22-.56v-9.44a5.63,5.63,0,0,0-1.19-3.81A4.33,4.33,0,0,0,38,326a4.53,4.53,0,0,0-3.48,1.38,5.35,5.35,0,0,0-1.29,3.8v9.44a.77.77,0,0,1-.79.79H30.9A.78.78,0,0,1,30.33,341.14Z"/><path class="cls-1" d="M52.67,339.54a8.85,8.85,0,0,1-2.28-5.91l0-1.16,0-1.12a8.82,8.82,0,0,1,2.28-5.86,7.28,7.28,0,0,1,5.55-2.18A7.26,7.26,0,0,1,64,325.69a9.55,9.55,0,0,1,2.06,6.48v.61a.75.75,0,0,1-.78.78H53.49v.31a6.25,6.25,0,0,0,1.36,3.78,4.06,4.06,0,0,0,3.34,1.57,4.85,4.85,0,0,0,2.61-.63,5.58,5.58,0,0,0,1.51-1.31,1.75,1.75,0,0,1,.48-.5,1.55,1.55,0,0,1,.58-.08h1.5a.82.82,0,0,1,.53.17.54.54,0,0,1,.22.44,3.06,3.06,0,0,1-.92,1.81,7.68,7.68,0,0,1-2.61,1.82,9.25,9.25,0,0,1-3.87.77A7.31,7.31,0,0,1,52.67,339.54ZM63,331.25v-.11a5.73,5.73,0,0,0-1.29-3.88,4.37,4.37,0,0,0-3.48-1.5,4.29,4.29,0,0,0-3.47,1.5,5.82,5.82,0,0,0-1.26,3.88v.11Z"/><path class="cls-1" d="M82.14,339.34q-2.39-2.37-2.38-7.17V318.33a.8.8,0,0,1,.2-.59.72.72,0,0,1,.55-.23h1.63a.81.81,0,0,1,.6.23.77.77,0,0,1,.22.59v13.9a7,7,0,0,0,1.55,5,5.77,5.77,0,0,0,4.41,1.63,5.71,5.71,0,0,0,4.38-1.65,7,7,0,0,0,1.55-5v-13.9a.8.8,0,0,1,.21-.59.72.72,0,0,1,.57-.23h1.64a.75.75,0,0,1,.56.23.77.77,0,0,1,.22.59v13.84q0,4.8-2.36,7.17t-6.77,2.37A9.21,9.21,0,0,1,82.14,339.34Z"/><path class="cls-1" d="M104.07,341.14a.73.73,0,0,1-.22-.56V318a.73.73,0,0,1,.22-.58.78.78,0,0,1,.56-.21h1.5a.79.79,0,0,1,.56.22.77.77,0,0,1,.22.57v22.62a.73.73,0,0,1-.22.56.75.75,0,0,1-.56.23h-1.5A.75.75,0,0,1,104.07,341.14Z"/><path class="cls-1" d="M114,335.4v-9.13h-2.69a.69.69,0,0,1-.75-.75v-1.09a.82.82,0,0,1,.2-.56.71.71,0,0,1,.55-.22H114V318a.84.84,0,0,1,.2-.57.75.75,0,0,1,.55-.22h1.5a.79.79,0,0,1,.56.22.77.77,0,0,1,.22.57v5.69h4.23a.76.76,0,0,1,.56.22.75.75,0,0,1,.22.56v1.09a.71.71,0,0,1-.22.55.83.83,0,0,1-.56.2H117v8.89a4.91,4.91,0,0,0,.57,2.63,2.08,2.08,0,0,0,1.92.88h2.08a.68.68,0,0,1,.54.23.76.76,0,0,1,.21.56v1.12a.76.76,0,0,1-.21.56.68.68,0,0,1-.54.23h-2.32Q114,341.37,114,335.4Z"/><path class="cls-1" d="M126.08,320.09a.77.77,0,0,1-.22-.57v-1.77a.82.82,0,0,1,.22-.58.73.73,0,0,1,.56-.24h2a.78.78,0,0,1,.58.24.8.8,0,0,1,.24.58v1.77a.75.75,0,0,1-.24.57.85.85,0,0,1-.58.22h-2A.79.79,0,0,1,126.08,320.09Zm.27,21.05a.73.73,0,0,1-.22-.56V324.43a.75.75,0,0,1,.22-.56.76.76,0,0,1,.56-.22h1.5a.77.77,0,0,1,.57.22.79.79,0,0,1,.22.56v16.15a.77.77,0,0,1-.79.79h-1.5A.77.77,0,0,1,126.35,341.14Z"/><path class="cls-1" d="M135,341.14a.73.73,0,0,1-.22-.56V324.43a.75.75,0,0,1,.22-.56.76.76,0,0,1,.56-.22H137a.71.71,0,0,1,.55.22.77.77,0,0,1,.2.56v1.16a6.07,6.07,0,0,1,5-2.28,5.46,5.46,0,0,1,5.31,3.13,6.11,6.11,0,0,1,2.34-2.28,6.77,6.77,0,0,1,3.39-.85,6,6,0,0,1,4.57,1.9,7.86,7.86,0,0,1,1.77,5.52v9.85a.77.77,0,0,1-.79.79h-1.46a.79.79,0,0,1-.79-.79V331a5.53,5.53,0,0,0-1.12-3.9,3.93,3.93,0,0,0-3-1.18,3.84,3.84,0,0,0-2.82,1.21A5.43,5.43,0,0,0,149,331v9.54a.77.77,0,0,1-.78.79h-1.5a.77.77,0,0,1-.79-.79V331a5.39,5.39,0,0,0-1.17-3.88,3.94,3.94,0,0,0-2.92-1.2,3.81,3.81,0,0,0-2.81,1.2,5.34,5.34,0,0,0-1.17,3.85v9.57a.77.77,0,0,1-.79.79h-1.5A.77.77,0,0,1,135,341.14Z"/><path class="cls-1" d="M167.27,341a5.79,5.79,0,0,1-2.25-1.85,4.57,4.57,0,0,1,1-6.29,10.72,10.72,0,0,1,5-1.91l5.11-.71v-1q0-3.51-4.06-3.51a4.52,4.52,0,0,0-2.52.63,4,4,0,0,0-1.39,1.48,1.21,1.21,0,0,1-.29.46.71.71,0,0,1-.43.12h-1.33a.73.73,0,0,1-.53-.22.75.75,0,0,1-.22-.53,3.37,3.37,0,0,1,.73-1.82,6,6,0,0,1,2.27-1.81,8.33,8.33,0,0,1,3.75-.76q3.81,0,5.47,1.77a6.25,6.25,0,0,1,1.65,4.43v11.07a.73.73,0,0,1-.22.56.77.77,0,0,1-.56.23H177a.72.72,0,0,1-.55-.23.8.8,0,0,1-.2-.56v-1.5A5.8,5.8,0,0,1,174,341a7.92,7.92,0,0,1-3.68.75A7,7,0,0,1,167.27,341Zm7.45-3.27a5.85,5.85,0,0,0,1.43-4.26v-.95l-4,.58a9.26,9.26,0,0,0-3.71,1.16,2.38,2.38,0,0,0-1.26,2,2.43,2.43,0,0,0,1.14,2.15,4.81,4.81,0,0,0,2.71.75A4.92,4.92,0,0,0,174.72,337.75Z"/><path class="cls-1" d="M186,335.4v-9.13h-2.7a.77.77,0,0,1-.54-.2.73.73,0,0,1-.2-.55v-1.09a.77.77,0,0,1,.2-.56.7.7,0,0,1,.54-.22H186V318a.8.8,0,0,1,.2-.57.75.75,0,0,1,.55-.22h1.5a.75.75,0,0,1,.78.79v5.69h4.22a.77.77,0,0,1,.57.22.79.79,0,0,1,.22.56v1.09a.75.75,0,0,1-.22.55.84.84,0,0,1-.57.2H189v8.89a5,5,0,0,0,.56,2.63,2.11,2.11,0,0,0,1.93.88h2.07a.72.72,0,0,1,.55.23.76.76,0,0,1,.2.56v1.12a.76.76,0,0,1-.2.56.72.72,0,0,1-.55.23h-2.31Q186,341.37,186,335.4Z"/><path class="cls-1" d="M199.59,339.54a8.9,8.9,0,0,1-2.28-5.91l0-1.16,0-1.12a8.87,8.87,0,0,1,2.28-5.86,8.22,8.22,0,0,1,11.36.2,9.55,9.55,0,0,1,2.07,6.48v.61a.75.75,0,0,1-.23.56.73.73,0,0,1-.56.22H200.41v.31a6.32,6.32,0,0,0,1.36,3.78,4.07,4.07,0,0,0,3.34,1.57,4.85,4.85,0,0,0,2.61-.63,5.58,5.58,0,0,0,1.51-1.31,1.89,1.89,0,0,1,.48-.5,1.55,1.55,0,0,1,.58-.08h1.5a.82.82,0,0,1,.53.17.54.54,0,0,1,.22.44,3.06,3.06,0,0,1-.92,1.81,7.49,7.49,0,0,1-2.61,1.82,9.23,9.23,0,0,1-3.86.77A7.34,7.34,0,0,1,199.59,339.54Zm10.33-8.29v-.11a5.74,5.74,0,0,0-1.3-3.88,4.35,4.35,0,0,0-3.47-1.5,4.3,4.3,0,0,0-3.48,1.5,5.82,5.82,0,0,0-1.26,3.88v.11Z"/><path class="cls-1" d="M227.09,341.14a.76.76,0,0,1-.21-.56V318.33a.8.8,0,0,1,.21-.59.69.69,0,0,1,.54-.23h7.7q5.14,0,7.43,2.3c1.52,1.54,2.31,3.85,2.35,6.94,0,.66,0,1.54,0,2.66s0,2,0,2.69a12.71,12.71,0,0,1-1,5.26,6.22,6.22,0,0,1-3,3,12.92,12.92,0,0,1-5.52,1h-7.87A.69.69,0,0,1,227.09,341.14Zm8.24-2.6a8.93,8.93,0,0,0,3.8-.67,4,4,0,0,0,2.05-2.08,10.39,10.39,0,0,0,.7-3.83q.06-2,.06-2.55c0-.37,0-1.21-.06-2.53q-.07-3.4-1.62-5c-1-1.05-2.73-1.58-5.1-1.58h-5.07v18.23Z"/><path class="cls-1" d="M251.79,339.54a8.85,8.85,0,0,1-2.28-5.91l0-1.16,0-1.12a8.82,8.82,0,0,1,2.28-5.86,8.22,8.22,0,0,1,11.36.2,9.55,9.55,0,0,1,2.07,6.48v.61a.75.75,0,0,1-.23.56.73.73,0,0,1-.56.22H252.61v.31a6.32,6.32,0,0,0,1.36,3.78,4.06,4.06,0,0,0,3.34,1.57,4.85,4.85,0,0,0,2.61-.63,5.58,5.58,0,0,0,1.51-1.31,1.89,1.89,0,0,1,.48-.5,1.55,1.55,0,0,1,.58-.08H264a.82.82,0,0,1,.53.17.54.54,0,0,1,.22.44,3.06,3.06,0,0,1-.92,1.81,7.49,7.49,0,0,1-2.61,1.82,9.25,9.25,0,0,1-3.87.77A7.33,7.33,0,0,1,251.79,339.54Zm10.32-8.29v-.11a5.73,5.73,0,0,0-1.29-3.88,4.35,4.35,0,0,0-3.48-1.5,4.29,4.29,0,0,0-3.47,1.5,5.82,5.82,0,0,0-1.26,3.88v.11Z"/><path class="cls-1" d="M272.47,347.91a6.21,6.21,0,0,1-2.4-2.18,4.45,4.45,0,0,1-.7-2.12.67.67,0,0,1,.24-.52.78.78,0,0,1,.55-.23h1.5a.86.86,0,0,1,.51.16,1.17,1.17,0,0,1,.34.56c.63,1.82,2.08,2.73,4.32,2.73a5.62,5.62,0,0,0,3.79-1.09c.81-.73,1.22-2,1.22-3.85V339a6.58,6.58,0,0,1-5.52,2.53,6.43,6.43,0,0,1-5.4-2.32,9.84,9.84,0,0,1-1.89-5.86l0-1,0-.92a9.84,9.84,0,0,1,1.89-5.84,6.38,6.38,0,0,1,5.4-2.33,6.63,6.63,0,0,1,5.59,2.62v-1.47a.78.78,0,0,1,.22-.57.74.74,0,0,1,.56-.24h1.47a.73.73,0,0,1,.56.24.78.78,0,0,1,.22.57V341q0,7.88-7.94,7.87A9.35,9.35,0,0,1,272.47,347.91Zm8.06-10.58a6.33,6.33,0,0,0,1.31-3.73,10.65,10.65,0,0,0,0-1.2,9.83,9.83,0,0,0,0-1.15,6.34,6.34,0,0,0-1.31-3.74,4.28,4.28,0,0,0-3.59-1.55,4.07,4.07,0,0,0-3.56,1.55,7.22,7.22,0,0,0-1.21,4l0,.88,0,.92a7.22,7.22,0,0,0,1.21,4,4.07,4.07,0,0,0,3.56,1.55A4.28,4.28,0,0,0,280.53,337.33Z"/><path class="cls-1" d="M290.75,341.14a.73.73,0,0,1-.22-.56V324.46a.78.78,0,0,1,.22-.57.75.75,0,0,1,.57-.24h1.43a.78.78,0,0,1,.59.22.8.8,0,0,1,.22.59V326a5.1,5.1,0,0,1,4.74-2.31h1.33a.7.7,0,0,1,.78.78v1.26a.8.8,0,0,1-.2.56.75.75,0,0,1-.58.23h-1.94a4,4,0,0,0-2.95,1.09,4,4,0,0,0-1.07,3v10.05a.71.71,0,0,1-.24.56.82.82,0,0,1-.58.23h-1.53A.78.78,0,0,1,290.75,341.14Z"/><path class="cls-1" d="M304.91,339.54a8.85,8.85,0,0,1-2.28-5.91l0-1.16,0-1.12a8.82,8.82,0,0,1,2.28-5.86,8.22,8.22,0,0,1,11.36.2,9.55,9.55,0,0,1,2.07,6.48v.61a.75.75,0,0,1-.23.56.73.73,0,0,1-.56.22H305.73v.31a6.32,6.32,0,0,0,1.36,3.78,4.06,4.06,0,0,0,3.34,1.57,4.85,4.85,0,0,0,2.61-.63,5.58,5.58,0,0,0,1.51-1.31,1.89,1.89,0,0,1,.48-.5,1.55,1.55,0,0,1,.58-.08h1.5a.82.82,0,0,1,.53.17.54.54,0,0,1,.22.44,3.06,3.06,0,0,1-.92,1.81,7.59,7.59,0,0,1-2.61,1.82,9.25,9.25,0,0,1-3.87.77A7.33,7.33,0,0,1,304.91,339.54Zm10.32-8.29v-.11a5.73,5.73,0,0,0-1.29-3.88,4.35,4.35,0,0,0-3.48-1.5,4.29,4.29,0,0,0-3.47,1.5,5.82,5.82,0,0,0-1.26,3.88v.11Z"/><path class="cls-1" d="M324.4,339.54a8.85,8.85,0,0,1-2.28-5.91l0-1.16,0-1.12a8.82,8.82,0,0,1,2.28-5.86,8.22,8.22,0,0,1,11.36.2,9.55,9.55,0,0,1,2.07,6.48v.61a.75.75,0,0,1-.23.56.73.73,0,0,1-.56.22H325.22v.31a6.32,6.32,0,0,0,1.36,3.78,4.06,4.06,0,0,0,3.34,1.57,4.85,4.85,0,0,0,2.61-.63,5.58,5.58,0,0,0,1.51-1.31,1.89,1.89,0,0,1,.48-.5,1.55,1.55,0,0,1,.58-.08h1.5a.82.82,0,0,1,.53.17.54.54,0,0,1,.22.44,3.06,3.06,0,0,1-.92,1.81,7.59,7.59,0,0,1-2.61,1.82,9.25,9.25,0,0,1-3.87.77A7.33,7.33,0,0,1,324.4,339.54Zm10.32-8.29v-.11a5.73,5.73,0,0,0-1.29-3.88,4.35,4.35,0,0,0-3.48-1.5,4.29,4.29,0,0,0-3.47,1.5,5.82,5.82,0,0,0-1.26,3.88v.11Z"/><path d="M9.54,290.09a2,2,0,0,1-.61-1.47V232.51A2.2,2.2,0,0,1,9.49,231a2,2,0,0,1,1.51-.6H32q25.42,0,25.95,23.44.17,5,.17,6.72T58,267.16q-.34,12.07-6.51,17.8t-19,5.73H11A2,2,0,0,1,9.54,290.09ZM32,280.69q7.15,0,10.35-3.19t3.36-10.6q.16-5.17.17-6.46t-.17-6.38q-.18-7.06-3.54-10.39t-10.6-3.32H21.09v40.34Z"/><path d="M71.81,286q-5.64-5.52-6-15.69l-.08-2.16q0-10.77,5.64-17T87,245q10.25,0,15.81,6.2t5.56,16.55v1.81a2,2,0,0,1-.6,1.47,2.1,2.1,0,0,1-1.55.6H77.63v.69a13.36,13.36,0,0,0,2.63,8A8.11,8.11,0,0,0,87,283.45a9.73,9.73,0,0,0,8-4,4.7,4.7,0,0,1,1.21-1.17,3.61,3.61,0,0,1,1.46-.21h7.59a2.13,2.13,0,0,1,1.34.43,1.44,1.44,0,0,1,.56,1.2c0,1.38-.82,3-2.46,4.87a20.19,20.19,0,0,1-7,4.87,25.44,25.44,0,0,1-10.6,2.07Q77.47,291.55,71.81,286Zm24.7-21.72v-.18A12.3,12.3,0,0,0,94,256,8.52,8.52,0,0,0,87,252.94a8.43,8.43,0,0,0-6.9,3.06,12.45,12.45,0,0,0-2.5,8.14v.18Z"/><path class="cls-2" d="M131.79,277.2l-7.14-19.4a2.29,2.29,0,0,0-2.32-1.64h-7.16a1.76,1.76,0,0,0-1.25.56,1.85,1.85,0,0,0-.56,1.34,2.6,2.6,0,0,0,.09.78l12.12,29.7a3.85,3.85,0,0,0,1.12,1.59,3,3,0,0,0,2,.56S132.14,281.69,131.79,277.2Z"/><path d="M157.1,238.12a1.68,1.68,0,0,0-1.29-.56h-7.16a2.14,2.14,0,0,0-1.5.52,2.5,2.5,0,0,0-.74,1.12L127,290.34l.06,0a3.71,3.71,0,0,0,1.6.31h6.55a3.2,3.2,0,0,0,3.1-2.15l19.21-48.3a2.55,2.55,0,0,0,.09-.78A1.9,1.9,0,0,0,157.1,238.12Z"/><path d="M164.83,286q-5.66-5.52-6-15.69l-.09-2.16q0-10.77,5.65-17T180,245q10.26,0,15.82,6.2t5.56,16.55v1.81a2,2,0,0,1-.61,1.47,2.1,2.1,0,0,1-1.55.6H170.65v.69a13.3,13.3,0,0,0,2.63,8,8.09,8.09,0,0,0,6.76,3.15,9.73,9.73,0,0,0,8-4,4.71,4.71,0,0,1,1.2-1.17,3.67,3.67,0,0,1,1.47-.21h7.58a2.11,2.11,0,0,1,1.34.43,1.44,1.44,0,0,1,.56,1.2c0,1.38-.82,3-2.46,4.87a20.15,20.15,0,0,1-7,4.87,25.48,25.48,0,0,1-10.6,2.07Q170.47,291.55,164.83,286Zm24.69-21.72v-.18A12.35,12.35,0,0,0,187,256a8.55,8.55,0,0,0-6.94-3.06,8.4,8.4,0,0,0-6.89,3.06,12.45,12.45,0,0,0-2.5,8.14v.18Z"/><path d="M211.24,290.09a2,2,0,0,1-.6-1.47V231.56a2,2,0,0,1,.6-1.51,2.09,2.09,0,0,1,1.47-.56H220a1.93,1.93,0,0,1,2.07,2.07v57.06a2.09,2.09,0,0,1-.56,1.47,2,2,0,0,1-1.51.6h-7.24A2,2,0,0,1,211.24,290.09Z"/><path d="M236.93,286.38q-5.52-5.17-6-14.31l-.08-3.79.08-3.79q.44-9.06,6-14.27t15.6-5.21q9.92,0,15.51,5.21t6,14.27c.05.69.08,1.95.08,3.79s0,3.1-.08,3.79q-.44,9.14-5.95,14.31t-15.6,5.17Q242.45,291.55,236.93,286.38ZM259.64,280q2.46-2.83,2.63-8.36.09-.86.09-3.36t-.09-3.36q-.16-5.52-2.67-8.41a8.75,8.75,0,0,0-7-2.88,8.86,8.86,0,0,0-7.07,2.88q-2.51,2.89-2.67,8.41l-.09,3.36.09,3.36q.17,5.52,2.67,8.36a8.91,8.91,0,0,0,7.07,2.85A8.76,8.76,0,0,0,259.64,280Z"/><path d="M283.74,306.51a2,2,0,0,1-.61-1.51V247.94a1.94,1.94,0,0,1,.61-1.51,2.08,2.08,0,0,1,1.46-.56h6.9a2.1,2.1,0,0,1,1.55.6,2,2,0,0,1,.6,1.47v3.45Q298.83,245,308,245q8.7,0,13.36,5.47t5,14.7c.05.69.08,1.72.08,3.1s0,2.41-.08,3.1q-.27,9.06-5,14.61T308,291.55q-8.62,0-13.19-6.12V305a1.93,1.93,0,0,1-2.07,2.07h-7.5A2.08,2.08,0,0,1,283.74,306.51Zm30.77-35.64c.05-.58.08-1.44.08-2.59s0-2-.08-2.59q-.6-11.37-9.83-11.37c-3.27,0-5.72,1.06-7.32,3.19a13.29,13.29,0,0,0-2.59,7.75c-.06.69-.09,1.79-.09,3.28s0,2.61.09,3.36a11.85,11.85,0,0,0,2.67,7.33q2.51,3,7.24,3Q313.9,282.24,314.51,270.87Z"/><path d="M340.06,286q-5.64-5.52-6-15.69l-.08-2.16q0-10.77,5.64-17t15.65-6.2q10.26,0,15.81,6.2t5.56,16.55v1.81a2,2,0,0,1-.6,1.47,2.1,2.1,0,0,1-1.55.6H345.88v.69a13.36,13.36,0,0,0,2.63,8,8.11,8.11,0,0,0,6.77,3.15,9.71,9.71,0,0,0,8-4,4.7,4.7,0,0,1,1.21-1.17,3.67,3.67,0,0,1,1.47-.21h7.58a2.13,2.13,0,0,1,1.34.43,1.44,1.44,0,0,1,.56,1.2c0,1.38-.82,3-2.46,4.87a20.24,20.24,0,0,1-7,4.87,25.49,25.49,0,0,1-10.61,2.07Q345.72,291.55,340.06,286Zm24.7-21.72v-.18a12.35,12.35,0,0,0-2.54-8.14,8.55,8.55,0,0,0-6.94-3.06,8.43,8.43,0,0,0-6.9,3.06,12.45,12.45,0,0,0-2.5,8.14v.18Z"/><path d="M386.39,290.09a2,2,0,0,1-.6-1.47V248a2.12,2.12,0,0,1,.6-1.55,2,2,0,0,1,1.47-.6h7.07a2.06,2.06,0,0,1,2.15,2.15v3.54q4.31-5.69,12.41-5.69h3.62a1.93,1.93,0,0,1,2.07,2.07v6.29a2.11,2.11,0,0,1-.56,1.47,2,2,0,0,1-1.51.6H406.3a8.05,8.05,0,0,0-8.7,8.71v23.61a2,2,0,0,1-.61,1.47,2,2,0,0,1-1.46.6h-7.67A2,2,0,0,1,386.39,290.09Z"/><path d="M12.65,209.9q-6.54-6.1-7-17.36-.09-2.34-.09-7.62t.09-7.79q.42-11.08,7-17.28t18.45-6.19a31.75,31.75,0,0,1,13.42,2.64,21.37,21.37,0,0,1,8.88,7.23,18.9,18.9,0,0,1,3.33,10.31V174a1.5,1.5,0,0,1-.56,1.17,1.9,1.9,0,0,1-1.26.47h-8.4a2.24,2.24,0,0,1-1.56-.47,3.72,3.72,0,0,1-.86-1.69q-1.31-5.37-4.51-7.58a14.67,14.67,0,0,0-8.48-2.21q-12.39,0-12.91,13.86c-.05,1.56-.08,3.95-.08,7.19s0,5.68.08,7.36Q18.75,206,31.14,206a14.73,14.73,0,0,0,8.44-2.2q3.26-2.22,4.55-7.58a3.72,3.72,0,0,1,.86-1.69,2.24,2.24,0,0,1,1.56-.48H55a1.92,1.92,0,0,1,1.34.52,1.45,1.45,0,0,1,.48,1.3,18.9,18.9,0,0,1-3.33,10.31,21.37,21.37,0,0,1-8.88,7.23A31.75,31.75,0,0,1,31.14,216Q19.19,216,12.65,209.9Z"/><path d="M69.46,210.47q-5.68-5.55-6-15.76l-.09-2.17q0-10.81,5.67-17.06t15.72-6.23q10.31,0,15.89,6.23t5.59,16.63v1.82a2,2,0,0,1-.61,1.47,2.12,2.12,0,0,1-1.56.61H75.3v.69a13.52,13.52,0,0,0,2.64,8,8.15,8.15,0,0,0,6.8,3.16,9.8,9.8,0,0,0,8.06-4A4.53,4.53,0,0,1,94,202.72a3.46,3.46,0,0,1,1.47-.22h7.62a2.11,2.11,0,0,1,1.34.43,1.45,1.45,0,0,1,.57,1.22c0,1.38-.83,3-2.47,4.89a20.37,20.37,0,0,1-7.06,4.89A25.52,25.52,0,0,1,84.83,216Q75.13,216,69.46,210.47Zm24.81-21.83v-.17a12.36,12.36,0,0,0-2.56-8.18,8.57,8.57,0,0,0-7-3.08,8.48,8.48,0,0,0-6.93,3.08,12.56,12.56,0,0,0-2.51,8.18v.17Z"/><path d="M115.31,214.54a2,2,0,0,1-.61-1.47V172.28a2.12,2.12,0,0,1,.61-1.56,2,2,0,0,1,1.47-.61h7.1a2.09,2.09,0,0,1,2.17,2.17v3.55q4.32-5.72,12.47-5.72h3.64a1.93,1.93,0,0,1,2.07,2.08v6.32a2,2,0,0,1-.56,1.47,1.94,1.94,0,0,1-1.51.61h-6.85a8.09,8.09,0,0,0-8.74,8.75v23.73a2.07,2.07,0,0,1-2.08,2.07h-7.71A2,2,0,0,1,115.31,214.54Z"/><path d="M158.87,211q-4-4.11-4-12.08V179.38h-3.4a2.07,2.07,0,0,1-2.07-2.08v-5.11a2.07,2.07,0,0,1,2.07-2.08h3.4V155.74a2,2,0,0,1,.6-1.52,2.11,2.11,0,0,1,1.47-.56h7.19a1.93,1.93,0,0,1,2.08,2.08v14.37h10.83a2.07,2.07,0,0,1,2.07,2.08v5.11a2.07,2.07,0,0,1-2.07,2.08H166.23V198a10,10,0,0,0,1.3,5.63,4.76,4.76,0,0,0,4.24,1.9h6.06a1.93,1.93,0,0,1,2.08,2.08v5.46a2.12,2.12,0,0,1-.56,1.47,2,2,0,0,1-1.52.6h-7.1Q162.85,215.14,158.87,211Z"/><path d="M187.19,162.14a2,2,0,0,1-.61-1.47v-6.32a2.11,2.11,0,0,1,.61-1.56,2,2,0,0,1,1.47-.6h8a2.06,2.06,0,0,1,2.16,2.16v6.32a1.9,1.9,0,0,1-.65,1.47,2.12,2.12,0,0,1-1.51.61h-8A2,2,0,0,1,187.19,162.14Zm.34,52.4a2,2,0,0,1-.6-1.47V172.19a2,2,0,0,1,.6-1.52,2.13,2.13,0,0,1,1.48-.56h7.36a2.08,2.08,0,0,1,2.08,2.08v40.88a2.07,2.07,0,0,1-2.08,2.07H189A2,2,0,0,1,187.53,214.54Z"/><path d="M214.64,214.54a2,2,0,0,1-.61-1.47V179.38h-7a2.08,2.08,0,0,1-2.08-2.08v-5.11a2.08,2.08,0,0,1,2.08-2.08h7v-3.46q0-7.87,4.25-11.74c2.82-2.56,7.1-3.85,12.81-3.85H249a1.95,1.95,0,0,1,2.08,2.08v5.11a2.08,2.08,0,0,1-2.08,2.08H231.53c-2.26,0-3.84.55-4.77,1.64a7.86,7.86,0,0,0-1.38,5.11v3H249a1.95,1.95,0,0,1,2.08,2.08v40.88a2.09,2.09,0,0,1-.57,1.47,2,2,0,0,1-1.51.6h-7.19a2.07,2.07,0,0,1-2.08-2.07V179.38H225.38v33.69a2.09,2.09,0,0,1-.57,1.47,2,2,0,0,1-1.51.6h-7.19A2,2,0,0,1,214.64,214.54Z"/><path d="M266,210.47q-5.67-5.55-6-15.76l-.09-2.17q0-10.81,5.68-17.06t15.71-6.23q10.31,0,15.89,6.23t5.59,16.63v1.82a2,2,0,0,1-.61,1.47,2.11,2.11,0,0,1-1.55.61H271.79v.69a13.45,13.45,0,0,0,2.65,8,8.13,8.13,0,0,0,6.79,3.16,9.8,9.8,0,0,0,8.06-4,4.53,4.53,0,0,1,1.21-1.17,3.46,3.46,0,0,1,1.47-.22h7.62a2.16,2.16,0,0,1,1.35.43,1.47,1.47,0,0,1,.56,1.22q0,2.07-2.47,4.89a20.37,20.37,0,0,1-7.06,4.89A25.52,25.52,0,0,1,281.32,216Q271.62,216,266,210.47Zm24.81-21.83v-.17a12.41,12.41,0,0,0-2.55-8.18,8.6,8.6,0,0,0-7-3.08,8.44,8.44,0,0,0-6.92,3.08,12.51,12.51,0,0,0-2.52,8.18v.17Z"/><path d="M314.49,210.42q-4.68-5.58-5.11-14.93l-.09-2.86.09-2.86q.35-9.18,5.06-14.85t13.47-5.67q8.31,0,13.25,5.71V155.74a2,2,0,0,1,.61-1.52,2.09,2.09,0,0,1,1.47-.56h7.53a1.93,1.93,0,0,1,2.08,2.08v57.33a2.12,2.12,0,0,1-.56,1.47,2,2,0,0,1-1.52.6h-7a2.07,2.07,0,0,1-2.08-2.07v-3.21Q336.91,216,327.91,216,319.16,216,314.49,210.42Zm24-6.92a14,14,0,0,0,2.64-7.84c.06-.69.09-1.79.09-3.29s0-2.69-.09-3.38a12,12,0,0,0-2.68-7.36c-1.68-2-4.1-3-7.28-3q-9.27,0-9.87,11.43l-.09,2.6.09,2.6q.6,11.43,9.87,11.43C334.49,206.66,336.93,205.6,338.52,203.5Z"/><path d="M392.63,214.54a2,2,0,0,1-.61-1.47V165.35H376a2,2,0,0,1-1.47-.61,2.08,2.08,0,0,1-.61-1.56v-6.49a2.21,2.21,0,0,1,.56-1.56,2,2,0,0,1,1.52-.61h44.25a2.09,2.09,0,0,1,2.17,2.17v6.49a2.12,2.12,0,0,1-.61,1.56,2.08,2.08,0,0,1-1.56.61H404.32v47.72a2.12,2.12,0,0,1-.56,1.47,2,2,0,0,1-1.52.6H394.1A2,2,0,0,1,392.63,214.54Z"/><path d="M427.05,210.47q-5.67-5.55-6-15.76l-.09-2.17q0-10.81,5.68-17.06t15.71-6.23q10.31,0,15.9,6.23t5.58,16.63v1.82a2,2,0,0,1-.61,1.47,2.11,2.11,0,0,1-1.55.61H432.89v.69a13.45,13.45,0,0,0,2.65,8,8.13,8.13,0,0,0,6.79,3.16,9.8,9.8,0,0,0,8.06-4,4.53,4.53,0,0,1,1.21-1.17,3.46,3.46,0,0,1,1.47-.22h7.62a2.16,2.16,0,0,1,1.35.43,1.47,1.47,0,0,1,.56,1.22q0,2.07-2.47,4.89a20.37,20.37,0,0,1-7.06,4.89A25.52,25.52,0,0,1,442.42,216Q432.72,216,427.05,210.47Zm24.81-21.83v-.17a12.41,12.41,0,0,0-2.55-8.18,8.6,8.6,0,0,0-7-3.08,8.44,8.44,0,0,0-6.92,3.08,12.51,12.51,0,0,0-2.52,8.18v.17Z"/><path d="M476.58,210.73q-5.67-5.28-6-14.64l-.08-3.46.08-3.47q.35-9.34,6-14.63t15.2-5.28a25.15,25.15,0,0,1,11.56,2.42,17.87,17.87,0,0,1,7,5.93,13.79,13.79,0,0,1,2.47,6.71,1.71,1.71,0,0,1-.57,1.48,2.16,2.16,0,0,1-1.51.6H503a2,2,0,0,1-1.39-.39,4,4,0,0,1-.86-1.43,10.15,10.15,0,0,0-3.42-4.76,9.32,9.32,0,0,0-5.42-1.47,8.73,8.73,0,0,0-6.88,2.77q-2.47,2.77-2.64,8.49l-.09,3.2.09,2.86q.52,11.25,9.52,11.26a9.48,9.48,0,0,0,5.46-1.43,10,10,0,0,0,3.38-4.81,3.42,3.42,0,0,1,.82-1.38,2.06,2.06,0,0,1,1.43-.44h7.71a2.17,2.17,0,0,1,1.51.61,1.69,1.69,0,0,1,.57,1.47,13.85,13.85,0,0,1-2.43,6.54,18.22,18.22,0,0,1-6.93,6A24.55,24.55,0,0,1,491.78,216Q482.26,216,476.58,210.73Z"/><path d="M521,214.54a2,2,0,0,1-.61-1.47V155.74a2,2,0,0,1,.61-1.52,2.09,2.09,0,0,1,1.47-.56h7.88a1.93,1.93,0,0,1,2.08,2.08v19.74q5.19-6.24,13.94-6.23,8,0,12.73,5.24t4.76,14.24v24.34a2.08,2.08,0,0,1-.56,1.47,2,2,0,0,1-1.51.6h-7.88a2.11,2.11,0,0,1-1.56-.6,2,2,0,0,1-.61-1.47V189.25q0-5-2.47-7.84a8.9,8.9,0,0,0-7.06-2.81,9.27,9.27,0,0,0-7.1,2.86,10.91,10.91,0,0,0-2.68,7.79v23.82a2.12,2.12,0,0,1-.56,1.47,2,2,0,0,1-1.52.6h-7.88A2,2,0,0,1,521,214.54Z"/><circle cx="62.12" cy="62.12" r="62.12"/><path class="cls-3" d="M57.26,79.29,47.88,53.81a3,3,0,0,0-3.05-2.15h-9.4a2.27,2.27,0,0,0-1.64.73,2.43,2.43,0,0,0-.74,1.76,3.29,3.29,0,0,0,.12,1l15.91,39a5.18,5.18,0,0,0,1.48,2.1,4,4,0,0,0,2.6.73S57.71,85.18,57.26,79.29Z"/><path class="cls-4" d="M90.51,28a2.23,2.23,0,0,0-1.7-.73h-9.4a2.77,2.77,0,0,0-2,.68,3.18,3.18,0,0,0-1,1.47L51,96.55l.08,0a4.76,4.76,0,0,0,2.1.41h8.6a4.21,4.21,0,0,0,4.08-2.83L91.07,30.74a3.29,3.29,0,0,0,.12-1A2.52,2.52,0,0,0,90.51,28Z"/></g></svg>